<mxfile host="app.diagrams.net" agent="Mozilla/5.0 (Macintosh; Intel Mac OS X 10_15_7) AppleWebKit/605.1.15 (KHTML, like Gecko) Version/17.4 Safari/605.1.15" version="24.7.16">
  <diagram name="Page-1" id="2YBvvXClWsGukQMizWep">
    <mxGraphModel dx="984" dy="667" grid="1" gridSize="10" guides="1" tooltips="1" connect="1" arrows="1" fold="1" page="1" pageScale="1" pageWidth="1100" pageHeight="1700" math="0" shadow="0">
      <root>
        <mxCell id="0" />
        <mxCell id="1" parent="0" />
        <mxCell id="ldE04mTDD0u72l3Dn9hl-44" value="" style="rounded=0;whiteSpace=wrap;html=1;" vertex="1" parent="1">
          <mxGeometry x="40" y="384.06" width="430" height="112.18" as="geometry" />
        </mxCell>
        <mxCell id="ldE04mTDD0u72l3Dn9hl-7" value="" style="rounded=0;whiteSpace=wrap;html=1;" vertex="1" parent="1">
          <mxGeometry x="400" y="265.94" width="270" height="112.18" as="geometry" />
        </mxCell>
        <mxCell id="aM9ryv3xv72pqoxQDRHE-1" value="&amp;lt;&amp;lt;actor&amp;gt;&amp;gt;&lt;div&gt;student&lt;/div&gt;" style="shape=umlLifeline;perimeter=lifelinePerimeter;whiteSpace=wrap;html=1;container=0;dropTarget=0;collapsible=0;recursiveResize=0;outlineConnect=0;portConstraint=eastwest;newEdgeStyle={&quot;edgeStyle&quot;:&quot;elbowEdgeStyle&quot;,&quot;elbow&quot;:&quot;vertical&quot;,&quot;curved&quot;:0,&quot;rounded&quot;:0};size=40;" parent="1" vertex="1">
          <mxGeometry x="160" y="40" width="100" height="456.24" as="geometry" />
        </mxCell>
        <mxCell id="ldE04mTDD0u72l3Dn9hl-61" value="" style="html=1;points=[];perimeter=orthogonalPerimeter;outlineConnect=0;targetShapes=umlLifeline;portConstraint=eastwest;newEdgeStyle={&quot;edgeStyle&quot;:&quot;elbowEdgeStyle&quot;,&quot;elbow&quot;:&quot;vertical&quot;,&quot;curved&quot;:0,&quot;rounded&quot;:0};" vertex="1" parent="aM9ryv3xv72pqoxQDRHE-1">
          <mxGeometry x="45" y="390" width="10" height="30" as="geometry" />
        </mxCell>
        <mxCell id="ldE04mTDD0u72l3Dn9hl-1" value="database" style="shape=umlLifeline;perimeter=lifelinePerimeter;whiteSpace=wrap;html=1;container=0;dropTarget=0;collapsible=0;recursiveResize=0;outlineConnect=0;portConstraint=eastwest;newEdgeStyle={&quot;edgeStyle&quot;:&quot;elbowEdgeStyle&quot;,&quot;elbow&quot;:&quot;vertical&quot;,&quot;curved&quot;:0,&quot;rounded&quot;:0};" vertex="1" parent="1">
          <mxGeometry x="755" y="40" width="100" height="330" as="geometry" />
        </mxCell>
        <mxCell id="ldE04mTDD0u72l3Dn9hl-2" value="" style="html=1;points=[];perimeter=orthogonalPerimeter;outlineConnect=0;targetShapes=umlLifeline;portConstraint=eastwest;newEdgeStyle={&quot;edgeStyle&quot;:&quot;elbowEdgeStyle&quot;,&quot;elbow&quot;:&quot;vertical&quot;,&quot;curved&quot;:0,&quot;rounded&quot;:0};" vertex="1" parent="ldE04mTDD0u72l3Dn9hl-1">
          <mxGeometry x="45" y="80" width="10" height="90" as="geometry" />
        </mxCell>
        <mxCell id="ldE04mTDD0u72l3Dn9hl-3" value="processLogin" style="html=1;verticalAlign=bottom;endArrow=block;edgeStyle=elbowEdgeStyle;elbow=vertical;curved=0;rounded=0;" edge="1" parent="1">
          <mxGeometry relative="1" as="geometry">
            <mxPoint x="445" y="140" as="sourcePoint" />
            <Array as="points">
              <mxPoint x="530" y="140" />
            </Array>
            <mxPoint x="615" y="140" as="targetPoint" />
            <mxPoint as="offset" />
          </mxGeometry>
        </mxCell>
        <mxCell id="ldE04mTDD0u72l3Dn9hl-9" value="loginInformation" style="html=1;verticalAlign=bottom;endArrow=block;edgeStyle=elbowEdgeStyle;elbow=vertical;curved=0;rounded=0;" edge="1" parent="1" source="aM9ryv3xv72pqoxQDRHE-1" target="aM9ryv3xv72pqoxQDRHE-5">
          <mxGeometry x="-0.0047" relative="1" as="geometry">
            <mxPoint x="265" y="130" as="sourcePoint" />
            <Array as="points">
              <mxPoint x="340" y="130" />
            </Array>
            <mxPoint x="425" y="130" as="targetPoint" />
            <mxPoint as="offset" />
          </mxGeometry>
        </mxCell>
        <mxCell id="ldE04mTDD0u72l3Dn9hl-10" value="" style="shape=card;whiteSpace=wrap;html=1;rotation=90;flipH=1;" vertex="1" parent="1">
          <mxGeometry x="417.19000000000005" y="250" width="25.62" height="61.87" as="geometry" />
        </mxCell>
        <mxCell id="ldE04mTDD0u72l3Dn9hl-13" value="&lt;font style=&quot;font-size: 10px;&quot;&gt;[if login ID and passwords match]&lt;/font&gt;" style="text;html=1;align=center;verticalAlign=middle;whiteSpace=wrap;rounded=0;" vertex="1" parent="1">
          <mxGeometry x="430" y="281.87" width="180" height="30" as="geometry" />
        </mxCell>
        <mxCell id="ldE04mTDD0u72l3Dn9hl-14" value="&lt;font style=&quot;font-size: 10px;&quot;&gt;[else]&lt;/font&gt;" style="text;html=1;align=center;verticalAlign=middle;whiteSpace=wrap;rounded=0;" vertex="1" parent="1">
          <mxGeometry x="430" y="325.94" width="60" height="30" as="geometry" />
        </mxCell>
        <mxCell id="ldE04mTDD0u72l3Dn9hl-20" value="" style="endArrow=classic;html=1;rounded=0;dashed=1;" edge="1" parent="1">
          <mxGeometry width="50" height="50" relative="1" as="geometry">
            <mxPoint x="629.5" y="325.11" as="sourcePoint" />
            <mxPoint x="439.99666666666667" y="325.11" as="targetPoint" />
          </mxGeometry>
        </mxCell>
        <mxCell id="ldE04mTDD0u72l3Dn9hl-21" value="&lt;font style=&quot;font-size: 10px;&quot;&gt;confirmLogin&lt;/font&gt;" style="text;html=1;align=center;verticalAlign=middle;whiteSpace=wrap;rounded=0;" vertex="1" parent="1">
          <mxGeometry x="500" y="295.94" width="60" height="30" as="geometry" />
        </mxCell>
        <mxCell id="ldE04mTDD0u72l3Dn9hl-23" value="&lt;font style=&quot;font-size: 10px;&quot;&gt;rejectLogin&lt;/font&gt;" style="text;html=1;align=center;verticalAlign=middle;whiteSpace=wrap;rounded=0;" vertex="1" parent="1">
          <mxGeometry x="510" y="338.12" width="60" height="30" as="geometry" />
        </mxCell>
        <mxCell id="ldE04mTDD0u72l3Dn9hl-27" value="compareLoginDetails" style="html=1;verticalAlign=bottom;endArrow=block;edgeStyle=elbowEdgeStyle;elbow=vertical;curved=0;rounded=0;" edge="1" parent="1">
          <mxGeometry relative="1" as="geometry">
            <mxPoint x="635" y="140" as="sourcePoint" />
            <Array as="points">
              <mxPoint x="720" y="140" />
            </Array>
            <mxPoint x="805" y="140" as="targetPoint" />
            <mxPoint as="offset" />
          </mxGeometry>
        </mxCell>
        <mxCell id="ldE04mTDD0u72l3Dn9hl-24" value="controller:&lt;div&gt;LoginController&lt;/div&gt;" style="shape=umlLifeline;perimeter=lifelinePerimeter;whiteSpace=wrap;html=1;container=0;dropTarget=0;collapsible=0;recursiveResize=0;outlineConnect=0;portConstraint=eastwest;newEdgeStyle={&quot;edgeStyle&quot;:&quot;elbowEdgeStyle&quot;,&quot;elbow&quot;:&quot;vertical&quot;,&quot;curved&quot;:0,&quot;rounded&quot;:0};" vertex="1" parent="1">
          <mxGeometry x="555" y="40" width="140" height="510" as="geometry" />
        </mxCell>
        <mxCell id="ldE04mTDD0u72l3Dn9hl-25" value="" style="html=1;points=[];perimeter=orthogonalPerimeter;outlineConnect=0;targetShapes=umlLifeline;portConstraint=eastwest;newEdgeStyle={&quot;edgeStyle&quot;:&quot;elbowEdgeStyle&quot;,&quot;elbow&quot;:&quot;vertical&quot;,&quot;curved&quot;:0,&quot;rounded&quot;:0};" vertex="1" parent="ldE04mTDD0u72l3Dn9hl-24">
          <mxGeometry x="65" y="80" width="10" height="260" as="geometry" />
        </mxCell>
        <mxCell id="ldE04mTDD0u72l3Dn9hl-31" value="loginResult" style="html=1;verticalAlign=bottom;endArrow=block;edgeStyle=elbowEdgeStyle;elbow=vertical;curved=0;rounded=0;" edge="1" parent="1">
          <mxGeometry relative="1" as="geometry">
            <mxPoint x="795" y="204.58" as="sourcePoint" />
            <Array as="points">
              <mxPoint x="735.33" y="204.58" />
            </Array>
            <mxPoint x="624.9966666666668" y="204.57999999999998" as="targetPoint" />
          </mxGeometry>
        </mxCell>
        <mxCell id="ldE04mTDD0u72l3Dn9hl-22" value="" style="endArrow=classic;html=1;rounded=0;dashed=1;" edge="1" parent="1">
          <mxGeometry width="50" height="50" relative="1" as="geometry">
            <mxPoint x="629.5" y="368.12" as="sourcePoint" />
            <mxPoint x="442.80999999999995" y="368.12" as="targetPoint" />
          </mxGeometry>
        </mxCell>
        <mxCell id="ldE04mTDD0u72l3Dn9hl-39" value="&amp;lt;&amp;lt;actor&amp;gt;&amp;gt;&lt;div&gt;instructor&lt;/div&gt;" style="shape=umlLifeline;perimeter=lifelinePerimeter;whiteSpace=wrap;html=1;container=0;dropTarget=0;collapsible=0;recursiveResize=0;outlineConnect=0;portConstraint=eastwest;newEdgeStyle={&quot;edgeStyle&quot;:&quot;elbowEdgeStyle&quot;,&quot;elbow&quot;:&quot;vertical&quot;,&quot;curved&quot;:0,&quot;rounded&quot;:0};size=40;" vertex="1" parent="1">
          <mxGeometry x="20" y="40" width="100" height="460.42" as="geometry" />
        </mxCell>
        <mxCell id="ldE04mTDD0u72l3Dn9hl-62" value="" style="html=1;points=[];perimeter=orthogonalPerimeter;outlineConnect=0;targetShapes=umlLifeline;portConstraint=eastwest;newEdgeStyle={&quot;edgeStyle&quot;:&quot;elbowEdgeStyle&quot;,&quot;elbow&quot;:&quot;vertical&quot;,&quot;curved&quot;:0,&quot;rounded&quot;:0};" vertex="1" parent="ldE04mTDD0u72l3Dn9hl-39">
          <mxGeometry x="45" y="430.42" width="10" height="30" as="geometry" />
        </mxCell>
        <mxCell id="ldE04mTDD0u72l3Dn9hl-63" value="" style="html=1;points=[];perimeter=orthogonalPerimeter;outlineConnect=0;targetShapes=umlLifeline;portConstraint=eastwest;newEdgeStyle={&quot;edgeStyle&quot;:&quot;elbowEdgeStyle&quot;,&quot;elbow&quot;:&quot;vertical&quot;,&quot;curved&quot;:0,&quot;rounded&quot;:0};" vertex="1" parent="ldE04mTDD0u72l3Dn9hl-39">
          <mxGeometry x="45" y="95" width="10" height="30" as="geometry" />
        </mxCell>
        <mxCell id="ldE04mTDD0u72l3Dn9hl-42" value="userRole" style="html=1;verticalAlign=bottom;endArrow=block;edgeStyle=elbowEdgeStyle;elbow=vertical;curved=0;rounded=0;" edge="1" parent="1" target="aM9ryv3xv72pqoxQDRHE-6">
          <mxGeometry relative="1" as="geometry">
            <mxPoint x="625" y="230" as="sourcePoint" />
            <Array as="points">
              <mxPoint x="565.33" y="230" />
            </Array>
            <mxPoint x="454.9966666666668" y="229.99999999999997" as="targetPoint" />
          </mxGeometry>
        </mxCell>
        <mxCell id="ldE04mTDD0u72l3Dn9hl-43" value="loginInformation" style="html=1;verticalAlign=bottom;endArrow=block;edgeStyle=elbowEdgeStyle;elbow=vertical;curved=0;rounded=0;" edge="1" parent="1" source="ldE04mTDD0u72l3Dn9hl-59" target="aM9ryv3xv72pqoxQDRHE-5">
          <mxGeometry x="-0.0047" relative="1" as="geometry">
            <mxPoint x="70" y="150" as="sourcePoint" />
            <Array as="points">
              <mxPoint x="200" y="150" />
            </Array>
            <mxPoint x="295" y="150" as="targetPoint" />
            <mxPoint as="offset" />
          </mxGeometry>
        </mxCell>
        <mxCell id="ldE04mTDD0u72l3Dn9hl-45" value="" style="shape=card;whiteSpace=wrap;html=1;rotation=90;flipH=1;" vertex="1" parent="1">
          <mxGeometry x="57.19" y="368.12" width="25.62" height="61.87" as="geometry" />
        </mxCell>
        <mxCell id="ldE04mTDD0u72l3Dn9hl-46" value="alt" style="text;html=1;align=center;verticalAlign=middle;whiteSpace=wrap;rounded=0;" vertex="1" parent="1">
          <mxGeometry x="40" y="384.06" width="60" height="30" as="geometry" />
        </mxCell>
        <mxCell id="ldE04mTDD0u72l3Dn9hl-47" value="&lt;font style=&quot;font-size: 10px;&quot;&gt;[if userRole = student]&lt;/font&gt;" style="text;html=1;align=center;verticalAlign=middle;whiteSpace=wrap;rounded=0;" vertex="1" parent="1">
          <mxGeometry x="180" y="390" width="180" height="30" as="geometry" />
        </mxCell>
        <mxCell id="ldE04mTDD0u72l3Dn9hl-48" value="&lt;font style=&quot;font-size: 10px;&quot;&gt;[else if userRole = instructor]&lt;/font&gt;" style="text;html=1;align=center;verticalAlign=middle;whiteSpace=wrap;rounded=0;" vertex="1" parent="1">
          <mxGeometry x="65" y="440.42" width="150" height="30" as="geometry" />
        </mxCell>
        <mxCell id="ldE04mTDD0u72l3Dn9hl-49" value="" style="endArrow=classic;html=1;rounded=0;dashed=1;" edge="1" parent="1">
          <mxGeometry width="50" height="50" relative="1" as="geometry">
            <mxPoint x="437.81" y="439.42" as="sourcePoint" />
            <mxPoint x="209.5" y="439.41999999999996" as="targetPoint" />
          </mxGeometry>
        </mxCell>
        <mxCell id="ldE04mTDD0u72l3Dn9hl-52" value="" style="endArrow=classic;html=1;rounded=0;dashed=1;" edge="1" parent="1">
          <mxGeometry width="50" height="50" relative="1" as="geometry">
            <mxPoint x="437" y="486.41999999999996" as="sourcePoint" />
            <mxPoint x="74" y="486.24" as="targetPoint" />
          </mxGeometry>
        </mxCell>
        <mxCell id="ldE04mTDD0u72l3Dn9hl-54" value="redirectToStudentPage" style="text;html=1;align=center;verticalAlign=middle;whiteSpace=wrap;rounded=0;" vertex="1" parent="1">
          <mxGeometry x="290" y="410.42" width="60" height="30" as="geometry" />
        </mxCell>
        <mxCell id="ldE04mTDD0u72l3Dn9hl-57" value="redirectToInstructorPage" style="text;html=1;align=center;verticalAlign=middle;whiteSpace=wrap;rounded=0;" vertex="1" parent="1">
          <mxGeometry x="280" y="460" width="60" height="30" as="geometry" />
        </mxCell>
        <mxCell id="aM9ryv3xv72pqoxQDRHE-5" value="ui:&lt;div&gt;userLogin&lt;/div&gt;" style="shape=umlLifeline;perimeter=lifelinePerimeter;whiteSpace=wrap;html=1;container=0;dropTarget=0;collapsible=0;recursiveResize=0;outlineConnect=0;portConstraint=eastwest;newEdgeStyle={&quot;edgeStyle&quot;:&quot;elbowEdgeStyle&quot;,&quot;elbow&quot;:&quot;vertical&quot;,&quot;curved&quot;:0,&quot;rounded&quot;:0};" parent="1" vertex="1">
          <mxGeometry x="385" y="40" width="100" height="500" as="geometry" />
        </mxCell>
        <mxCell id="aM9ryv3xv72pqoxQDRHE-6" value="" style="html=1;points=[];perimeter=orthogonalPerimeter;outlineConnect=0;targetShapes=umlLifeline;portConstraint=eastwest;newEdgeStyle={&quot;edgeStyle&quot;:&quot;elbowEdgeStyle&quot;,&quot;elbow&quot;:&quot;vertical&quot;,&quot;curved&quot;:0,&quot;rounded&quot;:0};" parent="aM9ryv3xv72pqoxQDRHE-5" vertex="1">
          <mxGeometry x="45" y="80" width="10" height="370" as="geometry" />
        </mxCell>
        <mxCell id="ldE04mTDD0u72l3Dn9hl-12" value="alt" style="text;html=1;align=center;verticalAlign=middle;whiteSpace=wrap;rounded=0;" vertex="1" parent="1">
          <mxGeometry x="400" y="265.94" width="60" height="30" as="geometry" />
        </mxCell>
        <mxCell id="ldE04mTDD0u72l3Dn9hl-60" value="" style="html=1;verticalAlign=bottom;endArrow=block;edgeStyle=elbowEdgeStyle;elbow=vertical;curved=0;rounded=0;" edge="1" parent="1" target="ldE04mTDD0u72l3Dn9hl-59">
          <mxGeometry x="-0.0047" relative="1" as="geometry">
            <mxPoint x="70" y="150" as="sourcePoint" />
            <Array as="points" />
            <mxPoint x="435" y="150" as="targetPoint" />
            <mxPoint as="offset" />
          </mxGeometry>
        </mxCell>
        <mxCell id="ldE04mTDD0u72l3Dn9hl-59" value="" style="html=1;points=[];perimeter=orthogonalPerimeter;outlineConnect=0;targetShapes=umlLifeline;portConstraint=eastwest;newEdgeStyle={&quot;edgeStyle&quot;:&quot;elbowEdgeStyle&quot;,&quot;elbow&quot;:&quot;vertical&quot;,&quot;curved&quot;:0,&quot;rounded&quot;:0};" vertex="1" parent="1">
          <mxGeometry x="205" y="120" width="10" height="60" as="geometry" />
        </mxCell>
      </root>
    </mxGraphModel>
  </diagram>
</mxfile>
